<svg width="25" height="29" viewBox="0 0 25 29" fill="none" xmlns="http://www.w3.org/2000/svg">
<path d="M1.95634 9.7316C1.46529 9.7316 1.04865 9.90284 0.706163 10.2453C0.363677 10.5878 0.192383 10.9988 0.192383 11.4784V18.8432C0.192383 19.3349 0.363626 19.7511 0.706163 20.0937C1.04865 20.4362 1.46529 20.6074 1.95634 20.6074C2.44704 20.6074 2.86115 20.4362 3.19833 20.0937C3.53484 19.7512 3.70356 19.3349 3.70356 18.8432V11.4784C3.70356 10.9987 3.53231 10.5878 3.18978 10.2453C2.84724 9.90284 2.43601 9.7316 1.95634 9.7316Z" fill="#E1E3E9"/>
<path d="M16.138 3.12028L17.3541 0.876965C17.4339 0.728448 17.4055 0.614561 17.2686 0.534479C17.1201 0.465425 17.0059 0.500416 16.9261 0.636977L15.6931 2.89823C14.6081 2.41851 13.4605 2.17821 12.2503 2.17821C11.0399 2.17821 9.89225 2.41856 8.80765 2.89823L7.57452 0.636977C7.49439 0.500416 7.38024 0.465735 7.23204 0.534479C7.09486 0.614922 7.06646 0.728448 7.1466 0.876965L8.36271 3.12028C7.12959 3.74913 6.14748 4.62493 5.41675 5.74958C4.68602 6.87484 4.3205 8.10451 4.3205 9.44075H20.163C20.163 8.10482 19.7974 6.8751 19.0667 5.74958C18.3359 4.62493 17.3595 3.74913 16.138 3.12028ZM9.10726 6.38322C8.97574 6.51504 8.81867 6.58064 8.63609 6.58064C8.45315 6.58064 8.29928 6.51504 8.17374 6.38322C8.04821 6.25202 7.98544 6.09557 7.98544 5.91237C7.98544 5.72979 8.04821 5.57303 8.17374 5.44152C8.29928 5.31031 8.45351 5.24471 8.63609 5.24471C8.81867 5.24471 8.97574 5.31031 9.10726 5.44152C9.23846 5.57334 9.30437 5.72979 9.30437 5.91237C9.30401 6.09526 9.23815 6.25202 9.10726 6.38322ZM16.3263 6.38322C16.2005 6.51504 16.0462 6.58064 15.864 6.58064C15.681 6.58064 15.5239 6.51504 15.3927 6.38322C15.2612 6.25202 15.1956 6.09557 15.1956 5.91237C15.1956 5.72979 15.2612 5.57303 15.3927 5.44152C15.5239 5.31031 15.681 5.24471 15.864 5.24471C16.0465 5.24471 16.2004 5.31031 16.3263 5.44152C16.4519 5.57334 16.5146 5.72979 16.5146 5.91237C16.5146 6.09526 16.4518 6.25202 16.3263 6.38322Z" fill="#E1E3E9"/>
<path d="M4.38855 21.4637C4.38855 21.9894 4.57113 22.4345 4.93634 22.7997C5.30186 23.1649 5.7469 23.3475 6.27227 23.3475H7.53977L7.55713 27.2358C7.55713 27.7268 7.72838 28.1437 8.07086 28.4863C8.41335 28.8288 8.82463 29.0001 9.30399 29.0001C9.79473 29.0001 10.2116 28.8288 10.5542 28.4863C10.8967 28.1437 11.0679 27.7268 11.0679 27.2358V23.3478H13.4314V27.2358C13.4314 27.7268 13.6026 28.1437 13.9452 28.4863C14.2877 28.8288 14.7042 29.0001 15.1953 29.0001C15.6861 29.0001 16.103 28.8288 16.4455 28.4863C16.7881 28.1437 16.9593 27.7268 16.9593 27.2358V23.3478H18.2439C18.7576 23.3478 19.1969 23.1652 19.5628 22.8C19.9279 22.4348 20.1106 21.9897 20.1106 21.464V10.0567H4.38855V21.4637Z" fill="#E1E3E9"/>
<path d="M22.5437 9.7316C22.0639 9.7316 21.653 9.90032 21.3105 10.2368C20.968 10.5739 20.7968 10.9881 20.7968 11.4784V18.8432C20.7968 19.3349 20.9679 19.7511 21.3105 20.0937C21.653 20.4362 22.0642 20.6074 22.5437 20.6074C23.0344 20.6074 23.4513 20.4362 23.7938 20.0937C24.1364 19.7511 24.3076 19.3349 24.3076 18.8432V11.4784C24.3076 10.988 24.1364 10.5739 23.7938 10.2368C23.4513 9.90032 23.0344 9.7316 22.5437 9.7316Z" fill="#E1E3E9"/>
</svg>
