<svg width="28" height="28" viewBox="0 0 28 28" fill="none" xmlns="http://www.w3.org/2000/svg">
<g clip-path="url(#clip0_4_16)">
<path d="M18.5225 0.499996C16.9911 0.603355 15.3521 1.51461 14.3375 2.74437C13.4494 3.82648 12.7048 5.41484 12.9875 7.06437C12.7344 6.98632 12.5044 6.97789 12.2281 6.87875C11.4751 6.61086 10.6144 6.32187 9.54499 6.32187C7.42085 6.32187 5.24608 7.58539 3.87499 9.69687C1.87952 12.7639 2.2803 18.1618 5.30936 22.775C5.84303 23.585 6.4653 24.4688 7.23311 25.1712C8.00092 25.8737 8.92905 26.4095 10.0175 26.42C10.9477 26.4305 11.5953 26.1205 12.1775 25.8631C12.7597 25.6058 13.3018 25.378 14.3206 25.3737C14.3269 25.3737 14.3312 25.3737 14.3375 25.3737C15.3521 25.3653 15.8773 25.5889 16.4469 25.8462C17.0164 26.1036 17.6576 26.4284 18.59 26.42C19.6995 26.4116 20.6424 25.8041 21.425 25.0531C22.2076 24.3022 22.8509 23.3804 23.3825 22.5725C24.144 21.4123 24.4498 20.7795 25.0362 19.4844C25.0974 19.3494 25.0995 19.1933 25.0405 19.0562C24.9835 18.9191 24.8717 18.8115 24.7325 18.7587C22.813 18.0331 21.7182 16.3351 21.56 14.54C21.4018 12.7449 22.1612 10.8971 24.0744 9.84875C24.2157 9.77281 24.3148 9.63992 24.3486 9.48382C24.3802 9.32773 24.3423 9.1632 24.2431 9.03875C22.8699 7.33226 20.9377 6.32187 19.0456 6.32187C17.839 6.32187 16.9531 6.60664 16.2275 6.87875C16.1073 6.92515 16.0187 6.92093 15.9069 6.96312C16.643 6.575 17.2927 6.03711 17.78 5.41062C18.6659 4.27367 19.3494 2.65578 19.0962 0.955621C19.054 0.677183 18.803 0.478902 18.5225 0.499996ZM17.9487 1.7825C17.9129 2.87304 17.5395 3.94039 16.9194 4.73562C16.2697 5.57093 15.177 6.1489 14.1181 6.32187C14.1371 5.27351 14.5505 4.18718 15.1812 3.41937C15.8436 2.61781 16.9405 2.03984 17.9487 1.7825ZM9.54499 7.40187C10.4162 7.40187 11.1144 7.62757 11.8569 7.89125C12.5994 8.15492 13.3819 8.465 14.3037 8.465C15.2044 8.465 15.9174 8.15281 16.6156 7.89125C17.3138 7.62968 18.0099 7.40187 19.0456 7.40187C20.3977 7.40187 21.8595 8.10429 23.0112 9.32562C21.1676 10.6271 20.3049 12.6563 20.48 14.6244C20.6551 16.6135 21.8532 18.5014 23.8212 19.4844C23.3951 20.4125 23.1146 21.0263 22.4881 21.9819C21.9713 22.7687 21.3575 23.6293 20.6825 24.2769C20.0075 24.9244 19.2924 25.3337 18.5731 25.34C17.8791 25.3463 17.4847 25.1396 16.8856 24.8675C16.2865 24.5954 15.5124 24.2832 14.3206 24.2937C13.1309 24.3001 12.3462 24.5996 11.7387 24.8675C11.1312 25.1354 10.7326 25.3463 10.0344 25.34C9.29608 25.3337 8.61053 24.9751 7.95874 24.3781C7.30694 23.7812 6.71842 22.9669 6.20374 22.1844C3.36874 17.8644 3.14092 12.7892 4.76936 10.2875C5.96327 8.45023 7.8596 7.40187 9.54499 7.40187Z" fill="#E1E3E9"/>
</g>
<defs>
<clipPath id="clip0_4_16">
<rect width="27" height="27" fill="white" transform="translate(0.5 0.5)"/>
</clipPath>
</defs>
</svg>
