<svg width="476" height="711" viewBox="0 0 476 711" fill="none" xmlns="http://www.w3.org/2000/svg" xmlns:xlink="http://www.w3.org/1999/xlink">
<path d="M112.632 116.871C112.632 117.947 113.036 118.957 113.843 119.898C114.65 120.706 115.66 121.11 116.871 121.11H229.503C230.579 121.11 231.521 121.513 232.329 122.321C233.27 123.128 233.741 124.137 233.741 125.348V229.503C233.741 230.579 233.27 231.521 232.329 232.329C231.521 233.27 230.579 233.741 229.503 233.741H4.23883C3.02774 233.741 2.01849 233.27 1.2111 232.329C0.403699 231.521 0 230.579 0 229.503V4.23884C0 3.02774 0.403699 2.01849 1.2111 1.21109C2.01849 0.403697 3.02774 0 4.23883 0H229.503C230.579 0 231.521 0.403697 232.329 1.21109C233.27 2.01849 233.741 3.02774 233.741 4.23884V108.393C233.741 109.47 233.27 110.479 232.329 111.421C231.521 112.228 230.579 112.632 229.503 112.632H116.871C115.66 112.632 114.65 113.036 113.843 113.843C113.036 114.65 112.632 115.66 112.632 116.871Z" fill="black"/>
<path d="M401.921 112.632C400.71 112.632 399.701 113.036 398.894 113.843C398.086 114.65 397.682 115.66 397.682 116.871C397.682 117.947 398.086 118.957 398.894 119.898C399.701 120.706 400.71 121.11 401.921 121.11H471.761C472.838 121.11 473.78 121.513 474.587 122.321C475.529 123.128 476 124.137 476 125.348V229.503C476 230.579 475.529 231.521 474.587 232.329C473.78 233.27 472.838 233.741 471.761 233.741H367.607C366.396 233.741 365.387 233.27 364.579 232.329C363.772 231.521 363.368 230.579 363.368 229.503V120.908C363.368 119.831 362.897 118.889 361.955 118.082C361.148 117.14 360.206 116.669 359.129 116.669C357.918 116.669 356.909 117.14 356.102 118.082C355.294 118.889 354.89 119.831 354.89 120.908V229.503C354.89 230.579 354.419 231.521 353.477 232.329C352.67 233.27 351.728 233.741 350.652 233.741H246.497C245.421 233.741 244.412 233.27 243.47 232.329C242.662 231.521 242.259 230.579 242.259 229.503V4.23884C242.259 3.02774 242.662 2.01849 243.47 1.21109C244.412 0.403697 245.421 0 246.497 0H471.761C472.838 0 473.78 0.403697 474.587 1.21109C475.529 2.01849 476 3.02774 476 4.23884V108.393C476 109.47 475.529 110.479 474.587 111.421C473.78 112.228 472.838 112.632 471.761 112.632H401.921ZM363.368 43.1957C363.368 41.9846 362.897 40.9754 361.955 40.168C361.148 39.3606 360.206 38.9569 359.129 38.9569H354.89V73.0694H359.129C360.206 73.0694 361.148 72.6657 361.955 71.8583C362.897 70.9164 363.368 69.9071 363.368 68.8306V43.1957Z" fill="black"/>
<path d="M229.503 238.182C230.579 238.182 231.521 238.653 232.329 239.595C233.27 240.402 233.741 241.344 233.741 242.421V308.022C233.741 309.099 233.27 310.108 232.329 311.05C231.521 311.857 230.579 312.261 229.503 312.261H116.871C115.66 312.261 114.65 312.664 113.843 313.472C113.036 314.279 112.632 315.289 112.632 316.5C112.632 317.576 113.036 318.585 113.843 319.527C114.65 320.335 115.66 320.738 116.871 320.738H229.503C230.579 320.738 231.521 321.142 232.329 321.95C233.27 322.757 233.741 323.766 233.741 324.977V385.128C233.741 386.205 233.27 387.147 232.329 387.954C231.521 388.896 230.579 389.367 229.503 389.367H116.871C115.66 389.367 114.65 389.771 113.843 390.578C113.036 391.386 112.632 392.395 112.632 393.606C112.632 394.817 113.036 395.826 113.843 396.634C114.65 397.441 115.66 397.845 116.871 397.845H229.503C230.579 397.845 231.521 398.249 232.329 399.056C233.27 399.863 233.741 400.873 233.741 402.084V467.685C233.741 468.761 233.27 469.703 232.329 470.511C231.521 471.453 230.579 471.924 229.503 471.924H4.23883C3.02774 471.924 2.01849 471.453 1.2111 470.511C0.403699 469.703 0 468.761 0 467.685V242.421C0 241.344 0.403699 240.402 1.2111 239.595C2.01849 238.653 3.02774 238.182 4.23883 238.182H229.503Z" fill="black"/>
<path d="M471.761 238.182C472.838 238.182 473.78 238.586 474.587 239.393C475.529 240.201 476 241.21 476 242.421V467.685C476 468.761 475.529 469.703 474.587 470.511C473.78 471.453 472.838 471.924 471.761 471.924H367.607C366.396 471.924 365.387 471.453 364.579 470.511C363.772 469.703 363.368 468.761 363.368 467.685V363.531C363.368 362.319 362.897 361.31 361.955 360.503C361.148 359.695 360.206 359.292 359.129 359.292C357.918 359.292 356.909 359.695 356.102 360.503C355.294 361.31 354.89 362.319 354.89 363.531V467.685C354.89 468.761 354.419 469.703 353.477 470.511C352.67 471.453 351.728 471.924 350.652 471.924H246.497C245.286 471.924 244.277 471.453 243.47 470.511C242.662 469.703 242.259 468.761 242.259 467.685V242.421C242.259 241.21 242.662 240.201 243.47 239.393C244.277 238.586 245.286 238.182 246.497 238.182H471.761ZM363.368 320.94C363.368 319.729 362.897 318.72 361.955 317.913C361.148 317.105 360.206 316.702 359.129 316.702C357.918 316.702 356.909 317.105 356.102 317.913C355.294 318.72 354.89 319.729 354.89 320.94V346.575C354.89 347.652 355.294 348.661 356.102 349.603C356.909 350.41 357.918 350.814 359.129 350.814C360.206 350.814 361.148 350.41 361.955 349.603C362.897 348.661 363.368 347.652 363.368 346.575V320.94Z" fill="black"/>
<path d="M60.5548 553.673C60.5548 552.461 60.0838 551.452 59.1418 550.645C58.3344 549.837 57.3925 549.434 56.3159 549.434H4.23883C3.02774 549.434 2.01849 549.03 1.2111 548.223C0.403699 547.281 0 546.271 0 545.195V480.603C0 479.527 0.403699 478.585 1.2111 477.777C2.01849 476.835 3.02774 476.364 4.23883 476.364H229.503C230.579 476.364 231.521 476.835 232.329 477.777C233.27 478.585 233.741 479.527 233.741 480.603V545.195C233.741 546.271 233.27 547.281 232.329 548.223C231.521 549.03 230.579 549.434 229.503 549.434H177.426C176.214 549.434 175.205 549.837 174.398 550.645C173.59 551.452 173.187 552.461 173.187 553.673V705.867C173.187 706.943 172.716 707.885 171.774 708.693C170.966 709.635 170.024 710.106 168.948 710.106H64.7936C63.5825 710.106 62.5733 709.635 61.7659 708.693C60.9585 707.885 60.5548 706.943 60.5548 705.867V553.673Z" fill="black"/>
<path d="M471.761 476.364C472.838 476.364 473.78 476.835 474.587 477.777C475.529 478.585 476 479.527 476 480.603V546.204C476 547.281 475.529 548.29 474.587 549.232C473.78 550.039 472.838 550.443 471.761 550.443H359.129C357.918 550.443 356.909 550.847 356.102 551.654C355.294 552.461 354.89 553.471 354.89 554.682C354.89 555.758 355.294 556.768 356.102 557.71C356.909 558.517 357.918 558.921 359.129 558.921H471.761C472.838 558.921 473.78 559.324 474.587 560.132C475.529 560.939 476 561.948 476 563.159V623.311C476 624.387 475.529 625.329 474.587 626.136C473.78 627.078 472.838 627.549 471.761 627.549H359.129C357.918 627.549 356.909 627.953 356.102 628.76C355.294 629.568 354.89 630.577 354.89 631.788C354.89 632.999 355.294 634.009 356.102 634.816C356.909 635.623 357.918 636.027 359.129 636.027H471.761C472.838 636.027 473.78 636.431 474.587 637.238C475.529 638.046 476 639.055 476 640.266V705.867C476 706.943 475.529 707.885 474.587 708.693C473.78 709.635 472.838 710.106 471.761 710.106H246.497C245.286 710.106 244.277 709.635 243.47 708.693C242.662 707.885 242.259 706.943 242.259 705.867V480.603C242.259 479.527 242.662 478.585 243.47 477.777C244.277 476.835 245.286 476.364 246.497 476.364H471.761Z" fill='black'/>
</svg>